<svg id="Camada_1" data-name="Camada 1" xmlns="http://www.w3.org/2000/svg" viewBox="0 0 145.3 150.5"><defs><style>.cls-1{fill:none;stroke:#fff;stroke-linecap:round;stroke-linejoin:round;stroke-width:3px}</style></defs><path class="cls-1" d="M115.3 142.3H144v1.7a7.7 7.7 0 0 1-7.7 7.7H123a7.7 7.7 0 0 1-7.7-7.7v-1.7z" transform="rotate(-180 129.55 145.7)"/><path class="cls-1" d="M106.2 149h9"/><circle class="cls-1" cx="129.5" cy="114.3" r="9.5"/><path class="cls-1" d="M135.7 121.5v18.1M123 121.5v18.1"/><circle class="cls-1" cx="129.5" cy="114.3" r=".8"/><path class="cls-1" d="M135.7 107.1l-17.9-35.3m2.3 40.9l-12.8-33"/><circle class="cls-1" cx="110.7" cy="73.5" r="7.1"/><path class="cls-1" d="M114.2 67.1L96 59.9l-4.6 8.4 15.8 11.5M93.7 64.1l-7.1-3.9m1.3-2.2l-2.5 4.5m2.7-5l-2.5-6.8-8.2.4M85.1 63L78 64.5l-4-7M9.2 132.7h34.3a7.7 7.7 0 0 1 7.7 7.7v8.6H1.5v-8.6a7.7 7.7 0 0 1 7.7-7.7zM66.8 149H51.2"/><circle class="cls-1" cx="26.4" cy="88.8" r="16.5"/><path class="cls-1" d="M15.5 101.3v31.4m22.2-31.4v31.4"/><circle class="cls-1" cx="26.4" cy="88.8" r="5.2"/><circle class="cls-1" cx="59" cy="15" r="1.2"/><circle class="cls-1" cx="59" cy="15" r="12.3"/><path class="cls-1" d="M15.5 76.3L46.7 15m-4.1 70.9L66 25.1M60.2 2.7l33.1 4.2v16.2l-33.1 4.2M93.3 15H107m0-4.4v8.8m0-9.7l9.4-8.2 13.4 8.2M107 20.3l9.4 8.2 13.4-8.2M93.9 105l8.8 8.7-8.7 8.7M62.9 105l-8.7 8.7 8.6 8.7M83.2 105l-9.5 17.8"/></svg>