<svg id="Camada_1" data-name="Camada 1" xmlns="http://www.w3.org/2000/svg" viewBox="0 0 146 153.9"><defs><style>.cls-1{fill:none;stroke:#fff;stroke-linecap:round;stroke-linejoin:round;stroke-width:3px}</style></defs><path class="cls-1" d="M27.5 32.3h90.9v90.89H27.5z"/><circle class="cls-1" cx="6.2" cy="50.6" r="4.7"/><circle class="cls-1" cx="11" cy="68.7" r="4.7"/><circle class="cls-1" cx="9.4" cy="86.8" r="4.7"/><circle class="cls-1" cx="14.1" cy="104.8" r="4.7"/><circle class="cls-1" cx="131.9" cy="50.6" r="4.7"/><circle class="cls-1" cx="138.2" cy="68.7" r="4.7"/><circle class="cls-1" cx="133.4" cy="86.8" r="4.7"/><circle class="cls-1" cx="139.8" cy="104.8" r="4.7"/><circle class="cls-1" cx="45.7" cy="14.1" r="4.7"/><circle class="cls-1" cx="63.9" cy="6.2" r="4.7"/><circle class="cls-1" cx="82.1" cy="14.1" r="4.7"/><circle class="cls-1" cx="100.3" cy="11" r="4.7"/><circle class="cls-1" cx="45.7" cy="146.1" r="4.7"/><circle class="cls-1" cx="63.9" cy="143" r="4.7"/><circle class="cls-1" cx="82.1" cy="147.7" r="4.7"/><circle class="cls-1" cx="100.3" cy="139.8" r="4.7"/><path class="cls-1" d="M45.7 32.3V18.8m18.2 13.5V10.9m18.2 21.4V18.8m18.2 13.5V15.6M45.7 141.5v-18.2m18.2 15v-15m18.2 19.8v-19.8m18.2 11.9v-11.9M27.5 105h-8.7m8.7-18.2H14.1m13.4-18.1H15.6m11.9-18.2H10.9M135.1 105h-16.7m10.4-18.2h-10.4m15.1-18.1h-15.1m8.8-18.2h-8.8M83.2 100a7.8 7.8 0 0 1 1.1 4.1c0 3.9-2.6 5.7-5.7 5.7S73 108 73 104.1V52.7c0-3.9 2.5-7 5.6-7s5.7 3.1 5.7 7a8.8 8.8 0 0 1-1 4"/><path class="cls-1" d="M93.2 101.3c0 3.9-2.6 7.1-5.7 7.1a4.8 4.8 0 0 1-3.6-1.7m13-19a8.2 8.2 0 0 1 1.4 4.7c0 3.9-2.5 7.1-5.6 7.1a4.7 4.7 0 0 1-2.8-.9m0-38.9a4.7 4.7 0 0 1 2.8-.9c3.1 0 5.6 3.2 5.6 7.1a8.6 8.6 0 0 1-1.3 4.6"/><path class="cls-1" d="M84.3 52.3a4.7 4.7 0 0 1 3.2-1.2c3.1 0 5.7 3.1 5.7 7v.7m1.1 10.8c3.5 0 6.4 4.3 6.4 9.5s-2.9 9.5-6.4 9.5M87 90c-3 0-5.4-3-5.4-6.8M73 100.1c0-3.7 2.4-6.8 5.4-6.8m0-30c-3 0-5.4-3.1-5.4-6.8M62.8 100a7.8 7.8 0 0 0-1.1 4.1c0 3.9 2.5 5.7 5.7 5.7s5.6-1.8 5.6-5.7V52.7c0-3.9-2.5-7-5.6-7s-5.7 3.1-5.7 7a8.8 8.8 0 0 0 1 4"/><path class="cls-1" d="M52.8 101.3c0 3.9 2.5 7.1 5.7 7.1a4.8 4.8 0 0 0 3.6-1.7m-13-19a8.2 8.2 0 0 0-1.5 4.7c0 3.9 2.6 7.1 5.7 7.1a4.7 4.7 0 0 0 2.8-.9m0-38.9a4.7 4.7 0 0 0-2.8-.9c-3.1 0-5.7 3.2-5.7 7.1a8.6 8.6 0 0 0 1.4 4.6"/><path class="cls-1" d="M61.7 52.3a4.7 4.7 0 0 0-3.2-1.2c-3.2 0-5.7 3.1-5.7 7v.7m-1.1 10.8c-3.5 0-6.4 4.3-6.4 9.5s2.9 9.5 6.4 9.5M59 90c3 0 5.4-3 5.4-6.8m8.6 17.2c0-3.7-2.4-6.8-5.4-6.8m0-29.7c3 0 5.4-3 5.4-6.8"/></svg>