<svg id="Camada_1" data-name="Camada 1" xmlns="http://www.w3.org/2000/svg" viewBox="0 0 143.6 150.9"><defs><style>.cls-1{fill:none;stroke:#fff;stroke-linecap:round;stroke-linejoin:round;stroke-width:3px}</style></defs><path class="cls-1" d="M29.7 62.8l73.7-26.3m-57 54.3l54.7-32.5"/><circle class="cls-1" cx="111.9" cy="47.5" r="1.3"/><circle class="cls-1" cx="111.9" cy="47.5" r="13.9"/><path class="cls-1" d="M125.7 45.5L130 83l-17.8 4.3-13.5-35.2m22.4 33l3.7 15.1m4.8-1.2l-9.6 2.3m10.6-2.6l11.5 8.1-5.4 17M119 101.6l-6.5 12.5 12.6 12.5"/><path class="cls-1" d="M48.9 12.7a18.7 18.7 0 0 0-34.5 5.4h-.5a11.6 11.6 0 0 0 0 23.2h40.2a14.8 14.8 0 0 0 0-29.5 15 15 0 0 0-8.8 2.9" transform="translate(-.8 -1.9)"/><path class="cls-1" d="M27.5 25.1l5.5 6.1 8.9-9.2M9.1 131h40.8a7.6 7.6 0 0 1 7.6 7.6v10.8h-56v-10.8a7.6 7.6 0 0 1 7.6-7.6zm66 18.4H57.6"/><circle class="cls-1" cx="29.5" cy="81.5" r="18.6"/><path class="cls-1" d="M17.3 95.5V131m25-35.5V131"/><circle class="cls-1" cx="29.5" cy="81.5" r="5.9"/></svg>