<svg xmlns="http://www.w3.org/2000/svg" viewBox="0 0 146 153.9"><defs><style>.a{fill:none;stroke:#fff;stroke-linecap:round;stroke-linejoin:round;stroke-width:3px}</style></defs><circle class="a" cx="27.4" cy="49.24" r="13.51"/><circle class="a" cx="104.66" cy="49.24" r="13.51"/><path class="a" d="M11.77 24a5.13 5.13 0 0 1 0-10.25m122.46.02a5.13 5.13 0 0 1 0 10.25M11.77 13.77h84.05m38.41 0h-29.57M11.77 24.02h122.46m-112.2 0v12.85m10.78-12.85v12.85m7.04 7.17H91.9M39.67 54.86h30.3m22.42 0H78.46m37.2 30.98v8.91c0 4.91-3.65 5.44-4.88 5.44H98.33c-1.2 0-4.88-.53-4.88-5.44v-16c0-4.92 3.64-5.45 4.88-5.45h12.45c1.2 0 4.88.53 4.88 5.45zM99.11 61.58v11.71m10.92 0V61.9m-5.44 38.29v11m24.06 28.94H20.82a3.62 3.62 0 0 1 0-7.23H125a3.62 3.62 0 1 0 0-7.23H20.59a3.62 3.62 0 0 1 0-7.23H125a3.62 3.62 0 1 0 0-7.23h-12.8"/><circle class="a" cx="27.4" cy="49.45" r="5.41"/><circle class="a" cx="104.66" cy="49.45" r="5.41"/></svg>