<svg id="Camada_1" data-name="Camada 1" xmlns="http://www.w3.org/2000/svg" viewBox="0 0 143.2 141.7"><defs><style>.cls-1{fill:none;stroke:#fff;stroke-linecap:round;stroke-linejoin:round;stroke-width:3px}</style></defs><path class="cls-1" d="M54.9 147.3c0-19 41.2-47.4 41.2-69.3 0-21.7-41.2-50.6-41.2-69.4" transform="translate(-1.3 -7.1)"/><path class="cls-1" d="M90.8 8.6c0 18.8-41.2 47.7-41.2 69.4h.1c0 21.6 41.2 50.6 41.2 69.3" transform="translate(-1.3 -7.1)"/><path class="cls-1" d="M55.3 8.8h32M73.4 19.2h7.2m-18.1 0h2.6m-3.6 103.3h20.1m1.2 10.4h5.1m-32.5 0h18.9M60.9 45h21.4M53.7 55.3h35.9m-3.7 10.4h7.9m-44.7 0H77M49.1 76h44.8M72.7 86.4h16.8m-35.8 0h10m-1.2 10.3h18.1M35.9 31.9h-9.3l-8-8m17 36.2h-6.1l-6.8-6.9m13.2 17.7H11.2m24.4 10.9H25.4l-6.9 8.4"/><circle class="cls-1" cx="15" cy="20.1" r="4.6"/><circle class="cls-1" cx="19.7" cy="49.1" r="4.6"/><circle class="cls-1" cx="6.1" cy="70.9" r="4.6"/><circle class="cls-1" cx="14.3" cy="93.6" r="4.6"/><path class="cls-1" d="M35.6 109.9h-4.8l-7.9 7.9"/><circle class="cls-1" cx="17.7" cy="121.6" r="4.6"/><path class="cls-1" d="M47.4 122.5H35.9V19.2h12.5m46.8 0h12.1v103.3h-12m12-12.6h9.3l8 7.9m-17-36.1h6l6.9 6.8m-13.2-17.6H132m-24.4-11h10.2l6.9-8.4"/><circle class="cls-1" cx="128.2" cy="121.6" r="4.6"/><circle class="cls-1" cx="123.5" cy="92.7" r="4.6"/><circle class="cls-1" cx="137.1" cy="70.9" r="4.6"/><circle class="cls-1" cx="128.9" cy="48.1" r="4.6"/><path class="cls-1" d="M107.6 31.9h4.8l7.9-8"/><circle class="cls-1" cx="125.5" cy="20.1" r="4.6"/></svg>